<!-- by TradingView --><svg width="56" height="56" xmlns="http://www.w3.org/2000/svg"><path fill="#002E6B" d="M0 0h56v56H0z"/><path d="M27.998 39C40.148 39 50 34.075 50 28.002 50 21.925 40.148 17 27.998 17 15.852 17 6 21.925 6 28.002 6 34.075 15.852 39 27.998 39zm4.143-5.397c-.367.83-.999 2.603-2.448 3.31-.441.214-.985.314-1.468.332h-.223c-4.06 0-7.84-.553-11.003-1.492-.024-.01-.098-.036-.121-.046-.293-.095-.441-.226-.441-.39 0-.14.079-.249.18-.349.047-.04.112-.095.2-.172.735-.594 2.931-2.15 7.075-3.7 1.453-.54 3.274-1.216 5.178-1.61 1.115-.228 5.258-.849 3.07 4.117zm11.115-11.088c.079-.132.181-.245.371-.255.102-.01.242.014.456.146 2.582 1.55 4.115 3.492 4.115 5.591 0 3.792-4.993 7.053-12.137 8.477-.455.09-.762.086-.864-.027-.074-.068-.093-.19 0-.34a1.46 1.46 0 01.19-.258c3.888-4.477 6.851-11.08 7.692-12.985.065-.131.126-.263.177-.349zm-19.332-.14c.367-.83.999-2.604 2.448-3.306.441-.214.985-.318 1.468-.331.111-.004.19 0 .218 0 4.064 0 7.84.548 11.008 1.492.024.01.098.036.121.045.293.095.441.227.441.39 0 .14-.079.245-.18.345-.047.045-.112.1-.2.172-.73.599-2.931 2.15-7.075 3.7-1.458.545-3.274 1.216-5.174 1.61-1.12.232-5.262.849-3.075-4.117zm-3.99-2.853c.46-.086.762-.086.874.027.065.072.083.19-.004.34-.046.077-.097.15-.19.254-3.888 4.48-6.851 11.079-7.697 12.988-.06.132-.125.263-.176.35-.075.131-.181.244-.367.254-.102.01-.246-.02-.46-.145-2.583-1.552-4.115-3.493-4.115-5.592 0-3.792 4.993-7.052 12.137-8.476" fill="#fff"/></svg>