<!-- by TradingView --><svg width="56" height="56" viewBox="0 0 56 56" xmlns="http://www.w3.org/2000/svg"><path d="M0 0h56v56H0V0Z" fill="#C5013D"/><path d="M41.4 14.56A18.38 18.38 0 0 0 27.92 9c-5.2 0-9.7 1.9-13.36 5.56A18.3 18.3 0 0 0 9 27.92c0 5.2 1.9 9.7 5.56 13.37a18.31 18.31 0 0 0 13.36 5.55c5.32 0 9.82-1.89 13.48-5.55a18.31 18.31 0 0 0 5.56-13.37c0-5.2-1.89-9.7-5.56-13.36Z" fill="#fff"/><path d="M27.94 11.96a14.9 14.9 0 0 0-11.13 4.83 14.96 14.96 0 0 0-4.64 11.13c0 4.26 1.58 8.04 4.54 11.24a16.12 16.12 0 0 0 11.23 4.48c4.38 0 8.16-1.53 11.24-4.48a15.52 15.52 0 0 0 4.58-11.24V27H33v2h9.33a13.71 13.71 0 0 1-4.48 9.32 14.16 14.16 0 0 1-9.9 3.9 13.3 13.3 0 0 1-10.06-4.24 13.34 13.34 0 0 1-4.29-10.06c0-3.9 1.45-7.31 4.29-10.15a13.34 13.34 0 0 1 10.05-4.29h.79v-1.52h-.79ZM27 19v17h6v-2h-4V19h-2Z" fill="#C5013D"/><path d="M22 24a2 2 0 1 0 0-4 2 2 0 0 0 0 4Z" fill="#C5013D"/></svg>