<!-- by TradingView --><svg width="56" height="56" xmlns="http://www.w3.org/2000/svg"><path fill="#00588A" d="M0 0h56v56H0z"/><path d="M28.02 24c-1.782 0-3.327 1.078-4.073 2.635l-.103.269s-.385 1.17.4 1.99c.674.702 1.997.658 1.997.658h3.892c.25 0 .38.078.463.202.122.179.04.47.04.47-.496.98-1.482 1.654-2.617 1.654-.968 0-1.813-.491-2.358-1.237-.388-.531-1.37-.506-1.585-.363-.135.09-.242.372-.129.605.758 1.557 2.285 2.649 4.072 2.649 1.752 0 3.275-1.039 4.034-2.555l.129-.363s.399-1.158-.387-1.976c-.674-.701-1.997-.638-1.997-.638h-3.892c-.25 0-.393-.1-.477-.222-.12-.18-.025-.47-.025-.47.496-.98 1.48-1.654 2.615-1.654.969 0 1.815.492 2.358 1.236.389.534 1.372.508 1.585.363.135-.088.244-.385.13-.618C31.334 25.079 29.804 24 28.018 24zm-9.536.04c-2.51 0-4.549 2.128-4.549 4.746 0 2.618 2.039 4.745 4.549 4.745 2.51 0 4.536-2.127 4.536-4.745 0-2.618-2.027-4.746-4.536-4.746zm19.097 0c-2.509 0-4.536 2.128-4.536 4.746v.013c0 2.618 2.027 4.733 4.536 4.733 2.088 0 3.848-1.468 4.38-3.469 0 0 .059-.302-.192-.444-.25-.142-1.077-.15-1.663.794a3.329 3.329 0 01-.425.564c-.535.558-1.284.901-2.1.901-1.634 0-2.951-1.374-2.951-3.079v-.013c0-1.704 1.317-3.092 2.95-3.092.817 0 1.566.355 2.101.914.164.17.3.36.425.565.586.945 1.414.922 1.663.78.25-.142.193-.43.193-.43-.533-2.003-2.293-3.483-4.381-3.483zm9.883 0c-2.51 0-4.549 2.128-4.549 4.746 0 2.618 2.038 4.745 4.55 4.745 2.509 0 4.535-2.127 4.535-4.745 0-2.618-2.026-4.746-4.536-4.746zm-38.928.014C6.032 24.054 4 26.175 4 28.786v6.776C4 35.87 4.136 37 5.147 37c.425 0 .425-.336.425-.336l-.013-4.302a4.423 4.423 0 002.977 1.156c2.502 0 4.536-2.12 4.536-4.732 0-2.61-2.034-4.732-4.536-4.732zm0 1.64c1.633 0 2.95 1.388 2.95 3.092 0 1.705-1.317 3.092-2.95 3.092-1.634 0-2.964-1.387-2.964-3.092 0-1.704 1.33-3.092 2.964-3.092zm9.948 0c1.634 0 2.95 1.388 2.95 3.092 0 1.705-1.316 3.092-2.95 3.092-1.634 0-2.964-1.387-2.964-3.092 0-1.704 1.33-3.092 2.964-3.092zm28.98 0c1.633 0 2.951 1.388 2.951 3.092 0 1.705-1.318 3.092-2.95 3.092-1.635 0-2.965-1.387-2.965-3.092 0-1.704 1.33-3.092 2.964-3.092z" fill="#fff"/></svg>