<!-- by TradingView --><svg width="56" height="56" xmlns="http://www.w3.org/2000/svg"><path fill="url(#paint0_linear)" d="M0 0h56v56H0z"/><path d="M48.512 30.956c.432 0 .488-.324.488-.76V29h-.488v-1H51v2.042c0 .131 0 .226-.024.451-.122 1.246-1.232 1.685-2.476 1.685s-2.354-.439-2.475-1.685c-.025-.225-.025-.32-.025-.45V26.97c0-.119.012-.332.025-.451.158-1.281 1.219-1.685 2.475-1.685 1.244 0 2.366.404 2.488 1.685.019.168.012.311.012.48h-2c0-.495.126-.975-.488-.975-.518 0-.512.4-.512.851v3.32c0 .453.023.76.512.76zM43 25v5.081L41.658 25H39v7h2v-5.287L42.46 32H45v-7h-2zM36 25.011v5.143c0 .429-.007.771-.497.771S35 30.583 35 30.154V25.01h-1.995v4.987c-.012.132 0 .385.013.457.123 1.301 1.174 1.723 2.485 1.723 1.31 0 2.36-.422 2.485-1.723 0-.072.012-.325.012-.457v-4.987h-2zM30.274 30.486c.036-.12.06-.336-.012-.503-.345-.888-2.759-1.296-3.068-2.7a2.411 2.411 0 01-.012-.924c.19-1.116 1.177-1.524 2.379-1.524.963 0 2.295.24 2.295 1.728v.48h-1.7v-.42c0-.372-.239-.624-.631-.624-.428 0-.57.24-.618.456a.94.94 0 00.012.36c.19.804 2.77 1.224 3.056 2.663.035.145.095.54.012 1.128-.166 1.152-1.177 1.572-2.403 1.572-1.284 0-2.473-.468-2.473-1.991v-.528h1.82v.66c0 .371.249.623.677.623.452 0 .607-.228.666-.456zM22.904 32L24 25.51V32h2v-7h-3.095l-.911 5.468L21.082 25H18v7h2v-6.49L21.082 32h1.822zM13.115 32l.951-6.49.928 6.49h1.844l-1.261-7H12.52l-1.261 7h1.855zM8.382 30.386c.036-.13.059-.34-.012-.505-.357-.88-2.795-1.28-3.104-2.652-.072-.34-.06-.61-.012-.915.19-1.103 1.177-1.502 2.402-1.502.976 0 2.344.223 2.344 1.701V27H8.263v-.428c0-.364-.238-.61-.643-.61-.428 0-.582.246-.63.457a.916.916 0 00.012.352c.202.787 2.807 1.209 3.092 2.629.036.152.095.528.012 1.115-.166 1.126-1.189 1.548-2.426 1.548-1.296 0-2.68-.458-2.68-1.97v-.517h2v.657c0 .364.288.61.715.61.453 0 .607-.235.667-.457z" fill="#fff"/><defs><linearGradient id="paint0_linear" x1="10.418" y1="9.712" x2="68.147" y2="76.017" gradientUnits="userSpaceOnUse"><stop stop-color="#1A1E21"/><stop offset="1" stop-color="#06060A"/></linearGradient></defs></svg>