<!-- by TradingView --><svg width="56" height="56" xmlns="http://www.w3.org/2000/svg"><path fill="#F0F3FA" d="M0 0h56v56H0z"/><path d="M23.925 19.246c-1.327.243-3.295 1.415-3.289 3.486.005 1.88 1.587 3.02 1.592 5.486.008 1.854-1.043 3.102-2.18 3.795.46-.04.962-.066 1.516-.067 1.162-.003 1.862.105 1.905.112l5.956-7.104a24.388 24.388 0 00-5.5-5.708z" fill="#E1002A"/><path d="M28.927 38.43c.751-1.135.845-2.943.909-4.785.07-1.717.439-3.01 2.803-3.018.524-.002 1.023.069 1.926.066 3.463-.015 5.724-1.174 7.13-1.935-2.873-1.78-7.067-3.6-12.271-3.804-.34.93-2.976 8.058-3.176 8.633.03.035.492.538 1.069 1.52a16.628 16.628 0 011.61 3.322z" fill="#E1002A"/><path d="M16.349 32.607c-.301.002-.45-.192-.492-.53-.038-.335-1.527-13.58-1.75-15.585-.031-.293-.106-.83-.107-1.022 0-.308.206-.47.45-.47.706-.003 4.552.873 8.633 3.654-1.176.322-3.303 1.511-3.293 3.973.007 2.179 1.612 3.378 1.62 5.564.013 3.555-4.19 4.415-5.061 4.416zM29.27 39.375c.064.165.124.303.185.4.094.155.216.226.366.225a.911.911 0 00.34-.089c.314-.14 12.75-5.767 14.625-6.608.272-.127.787-.351.957-.448.176-.097.257-.24.257-.385a.45.45 0 00-.072-.237c-.235-.369-1.438-1.61-3.45-2.966-1.596.854-4.09 2.176-7.8 2.191-.91 0-1.115-.058-1.736-.056-1.811.006-2.263.76-2.33 2.303-.01.291-.016.683-.033 1.114-.057 1.38-.225 3.282-1.31 4.556z" fill="#EE7602"/></svg>